<svg xmlns="http://www.w3.org/2000/svg" viewBox="0 0 1514.84 1125.74"><defs><style>.cls-1{fill:#241f20;}</style></defs><title>Artboard 11</title><g id="Layer_6" data-name="Layer 6"><path class="cls-1" d="M271,760.34q-69.81,0-117.3-39.71T106.14,606.35q0-56.54,57.74-104.06t181.65-71.58q19.25-3.61,43.32-7.81t50.53-9v-95q0-81.81-19.86-114.89t-61.95-33.08q-28.87,0-45.72,18.65t-21.64,64.35L287.8,267.1q-2.42,51.75-25.27,75.8T206,367q-31.29,0-51.74-19.24T133.82,296q0-49.32,34.28-83t90.81-50.53q56.54-16.83,122.72-16.85,107.06,0,165.4,52.33t58.35,170.22V634q0,54.15,50.53,54.13h22.38a10.73,10.73,0,0,1,7.14,2.71h0a10.73,10.73,0,0,1,1,15q-20.07,23-43.18,36.38-27.07,15.63-76.38,15.64-52.93,0-83.62-24.66T443,667.7q-36.11,38.5-74,65.57T271,760.34ZM344.33,687a93,93,0,0,0,45.11-11.43q21-11.41,49.94-35.48V437.93q-12,2.42-24.06,4.81t-27.68,4.81Q332.29,462,299.22,496.27t-33.08,92q0,49.35,22.85,74T344.33,687Z"/><path class="cls-1" d="M1325.91,142.55a130.21,130.21,0,0,0-99.75,55,319.74,319.74,0,0,0-452.88,41.7c-56.42,68.51-54.29,169.25,6.87,233.51a317.85,317.85,0,0,0,70.31,55.76c-40.88,34.67-74.16,70.65-97.21,102.94-40.15,53.72-30.59,111.85,32.7,133.2,61.32,20.76,171.87,36.46,171.87,36.46s165.24,22.57,236.29,43.5a46.55,46.55,0,0,1,19.13,10.71c10.8,10.14,13.66,25.84,9.9,40.15-42,158.37-386.49,120.43-400.32,51.67-4.57-27,17.67-81.11-30.41-111.12a65.22,65.22,0,0,0-12.59-5.88l-.08-.08h-.17a48.3,48.3,0,0,0-29.84-.58,56.9,56.9,0,0,0-30.09,22c-19.46,32.05-9.89,92.55,51.35,126.16,87.24,59,195.9,71.87,292.55,56.58,88.63-14,167.2-51.68,209.8-99.1,11.12-12.34,21.59-24.12,27.39-37.53,33.44-56.33,28.78-149-28-180.94-36.87-20.69-79.88-32.3-121.49-42.27-81.69-19.63-246.11-54-246.11-54-34-7.52-46.44-22.89-50.45-36.38-3.27-11-.82-23.06,5.24-32.87l8.42-12.92A319.9,319.9,0,0,0,1254,461c61.41-71.3,59.45-177.1-6.7-243.9l-4.17-4.17a83.36,83.36,0,0,1,24.94-18.89,48.37,48.37,0,0,1,5.8-2.62,22.71,22.71,0,0,1,6.95-1.06c4.66-.33,11.77,2.62,15.21,7.69,18.81,21.66,28.37,82.33,87.73,83a71,71,0,0,0,14.56-1.56h.08c.08,0,.08-.08.16-.08a50.61,50.61,0,0,0,27.07-15.78,60.27,60.27,0,0,0,15-36.06C1440.63,188.26,1399.09,139.28,1325.91,142.55ZM1116.52,441.07a96.28,96.28,0,0,1-192.55,0V261.35a96.28,96.28,0,0,1,192.55,0Z"/></g></svg>